<mxfile host="app.diagrams.net" modified="2024-05-24T03:36:52.800Z" agent="Mozilla/5.0 (Windows NT 10.0; Win64; x64) AppleWebKit/537.36 (KHTML, like Gecko) Chrome/125.0.0.0 Safari/537.36 Edg/125.0.0.0" etag="33G3VURJI4ersPQhAWba" version="24.4.4" type="device">
  <diagram name="Page-1" id="2YBvvXClWsGukQMizWep">
    <mxGraphModel dx="906" dy="652" grid="1" gridSize="10" guides="1" tooltips="1" connect="1" arrows="1" fold="1" page="1" pageScale="1" pageWidth="827" pageHeight="1169" math="0" shadow="0">
      <root>
        <mxCell id="0" />
        <mxCell id="1" parent="0" />
        <mxCell id="aM9ryv3xv72pqoxQDRHE-1" value=": checkInController" style="shape=umlLifeline;perimeter=lifelinePerimeter;whiteSpace=wrap;html=1;container=0;dropTarget=0;collapsible=0;recursiveResize=0;outlineConnect=0;portConstraint=eastwest;newEdgeStyle={&quot;edgeStyle&quot;:&quot;elbowEdgeStyle&quot;,&quot;elbow&quot;:&quot;vertical&quot;,&quot;curved&quot;:0,&quot;rounded&quot;:0};" parent="1" vertex="1">
          <mxGeometry x="230" y="60" width="130" height="300" as="geometry" />
        </mxCell>
        <mxCell id="aM9ryv3xv72pqoxQDRHE-2" value="" style="html=1;points=[];perimeter=orthogonalPerimeter;outlineConnect=0;targetShapes=umlLifeline;portConstraint=eastwest;newEdgeStyle={&quot;edgeStyle&quot;:&quot;elbowEdgeStyle&quot;,&quot;elbow&quot;:&quot;vertical&quot;,&quot;curved&quot;:0,&quot;rounded&quot;:0};" parent="aM9ryv3xv72pqoxQDRHE-1" vertex="1">
          <mxGeometry x="62.5" y="70" width="5" height="220" as="geometry" />
        </mxCell>
        <mxCell id="aM9ryv3xv72pqoxQDRHE-3" value="Perform check in" style="html=1;verticalAlign=bottom;startArrow=oval;endArrow=block;startSize=8;edgeStyle=elbowEdgeStyle;elbow=vertical;curved=0;rounded=0;" parent="aM9ryv3xv72pqoxQDRHE-1" target="aM9ryv3xv72pqoxQDRHE-2" edge="1">
          <mxGeometry relative="1" as="geometry">
            <mxPoint x="-80" y="70" as="sourcePoint" />
            <Array as="points">
              <mxPoint x="-40" y="70" />
            </Array>
          </mxGeometry>
        </mxCell>
        <mxCell id="aM9ryv3xv72pqoxQDRHE-5" value=": CheckInService" style="shape=umlLifeline;perimeter=lifelinePerimeter;whiteSpace=wrap;html=1;container=0;dropTarget=0;collapsible=0;recursiveResize=0;outlineConnect=0;portConstraint=eastwest;newEdgeStyle={&quot;edgeStyle&quot;:&quot;elbowEdgeStyle&quot;,&quot;elbow&quot;:&quot;vertical&quot;,&quot;curved&quot;:0,&quot;rounded&quot;:0};" parent="1" vertex="1">
          <mxGeometry x="380" y="60" width="120" height="300" as="geometry" />
        </mxCell>
        <mxCell id="aM9ryv3xv72pqoxQDRHE-6" value="" style="html=1;points=[];perimeter=orthogonalPerimeter;outlineConnect=0;targetShapes=umlLifeline;portConstraint=eastwest;newEdgeStyle={&quot;edgeStyle&quot;:&quot;elbowEdgeStyle&quot;,&quot;elbow&quot;:&quot;vertical&quot;,&quot;curved&quot;:0,&quot;rounded&quot;:0};" parent="aM9ryv3xv72pqoxQDRHE-5" vertex="1">
          <mxGeometry x="55" y="70" width="10" height="210" as="geometry" />
        </mxCell>
        <mxCell id="aM9ryv3xv72pqoxQDRHE-7" value="createCheckIn(checkInDTO)" style="html=1;verticalAlign=bottom;endArrow=block;edgeStyle=elbowEdgeStyle;elbow=horizontal;curved=0;rounded=0;" parent="1" source="aM9ryv3xv72pqoxQDRHE-2" target="aM9ryv3xv72pqoxQDRHE-5" edge="1">
          <mxGeometry x="-0.0013" relative="1" as="geometry">
            <mxPoint x="275" y="140" as="sourcePoint" />
            <Array as="points">
              <mxPoint x="370" y="140" />
            </Array>
            <mxPoint x="455" y="140" as="targetPoint" />
            <mxPoint as="offset" />
          </mxGeometry>
        </mxCell>
        <mxCell id="aM9ryv3xv72pqoxQDRHE-8" value="Response" style="html=1;verticalAlign=bottom;endArrow=open;dashed=1;endSize=8;edgeStyle=elbowEdgeStyle;elbow=horizontal;curved=0;rounded=0;" parent="1" edge="1">
          <mxGeometry relative="1" as="geometry">
            <mxPoint x="297.5" y="330" as="targetPoint" />
            <Array as="points">
              <mxPoint x="380" y="330" />
            </Array>
            <mxPoint x="455" y="330" as="sourcePoint" />
          </mxGeometry>
        </mxCell>
        <mxCell id="AW9qZRYgZf-F4qoxSW6H-1" value="Receptionist" style="shape=umlActor;verticalLabelPosition=bottom;verticalAlign=top;html=1;" parent="1" vertex="1">
          <mxGeometry x="110" y="100" width="30" height="60" as="geometry" />
        </mxCell>
        <mxCell id="AW9qZRYgZf-F4qoxSW6H-3" value=": ReservationRepository" style="shape=umlLifeline;perimeter=lifelinePerimeter;whiteSpace=wrap;html=1;container=0;dropTarget=0;collapsible=0;recursiveResize=0;outlineConnect=0;portConstraint=eastwest;newEdgeStyle={&quot;edgeStyle&quot;:&quot;elbowEdgeStyle&quot;,&quot;elbow&quot;:&quot;vertical&quot;,&quot;curved&quot;:0,&quot;rounded&quot;:0};" parent="1" vertex="1">
          <mxGeometry x="530" y="60" width="150" height="300" as="geometry" />
        </mxCell>
        <mxCell id="AW9qZRYgZf-F4qoxSW6H-4" value="" style="html=1;points=[];perimeter=orthogonalPerimeter;outlineConnect=0;targetShapes=umlLifeline;portConstraint=eastwest;newEdgeStyle={&quot;edgeStyle&quot;:&quot;elbowEdgeStyle&quot;,&quot;elbow&quot;:&quot;vertical&quot;,&quot;curved&quot;:0,&quot;rounded&quot;:0};" parent="AW9qZRYgZf-F4qoxSW6H-3" vertex="1">
          <mxGeometry x="70" y="75" width="10" height="115" as="geometry" />
        </mxCell>
        <mxCell id="AW9qZRYgZf-F4qoxSW6H-5" value="GetRecordById(reservationId)" style="html=1;verticalAlign=bottom;endArrow=block;curved=0;rounded=0;" parent="1" source="aM9ryv3xv72pqoxQDRHE-6" target="AW9qZRYgZf-F4qoxSW6H-3" edge="1">
          <mxGeometry x="0.0033" width="80" relative="1" as="geometry">
            <mxPoint x="470" y="160" as="sourcePoint" />
            <mxPoint x="600" y="160" as="targetPoint" />
            <Array as="points">
              <mxPoint x="560" y="160" />
            </Array>
            <mxPoint as="offset" />
          </mxGeometry>
        </mxCell>
        <mxCell id="AW9qZRYgZf-F4qoxSW6H-16" value=": CheckInRepository" style="shape=umlLifeline;perimeter=lifelinePerimeter;whiteSpace=wrap;html=1;container=0;dropTarget=0;collapsible=0;recursiveResize=0;outlineConnect=0;portConstraint=eastwest;newEdgeStyle={&quot;edgeStyle&quot;:&quot;elbowEdgeStyle&quot;,&quot;elbow&quot;:&quot;vertical&quot;,&quot;curved&quot;:0,&quot;rounded&quot;:0};" parent="1" vertex="1">
          <mxGeometry x="710" y="60" width="140" height="300" as="geometry" />
        </mxCell>
        <mxCell id="AW9qZRYgZf-F4qoxSW6H-17" value="" style="html=1;points=[];perimeter=orthogonalPerimeter;outlineConnect=0;targetShapes=umlLifeline;portConstraint=eastwest;newEdgeStyle={&quot;edgeStyle&quot;:&quot;elbowEdgeStyle&quot;,&quot;elbow&quot;:&quot;vertical&quot;,&quot;curved&quot;:0,&quot;rounded&quot;:0};" parent="AW9qZRYgZf-F4qoxSW6H-16" vertex="1">
          <mxGeometry x="65" y="190" width="10" height="60" as="geometry" />
        </mxCell>
        <mxCell id="AW9qZRYgZf-F4qoxSW6H-18" value="&lt;div&gt;&amp;lt;&amp;lt;entity&amp;gt;&amp;gt;&lt;/div&gt;: CheckIn" style="shape=umlLifeline;perimeter=lifelinePerimeter;whiteSpace=wrap;html=1;container=0;dropTarget=0;collapsible=0;recursiveResize=0;outlineConnect=0;portConstraint=eastwest;newEdgeStyle={&quot;edgeStyle&quot;:&quot;elbowEdgeStyle&quot;,&quot;elbow&quot;:&quot;vertical&quot;,&quot;curved&quot;:0,&quot;rounded&quot;:0};" parent="1" vertex="1">
          <mxGeometry x="870" y="60" width="140" height="300" as="geometry" />
        </mxCell>
        <mxCell id="AW9qZRYgZf-F4qoxSW6H-19" value="" style="html=1;points=[];perimeter=orthogonalPerimeter;outlineConnect=0;targetShapes=umlLifeline;portConstraint=eastwest;newEdgeStyle={&quot;edgeStyle&quot;:&quot;elbowEdgeStyle&quot;,&quot;elbow&quot;:&quot;vertical&quot;,&quot;curved&quot;:0,&quot;rounded&quot;:0};" parent="AW9qZRYgZf-F4qoxSW6H-18" vertex="1">
          <mxGeometry x="65" y="200" width="10" height="50" as="geometry" />
        </mxCell>
        <mxCell id="IpMiNXSg6rLeS8TZ1F-y-7" value="CreateRecord(checkIn)" style="html=1;verticalAlign=bottom;endArrow=block;curved=0;rounded=0;" parent="1" edge="1" target="AW9qZRYgZf-F4qoxSW6H-16">
          <mxGeometry x="0.0156" width="80" relative="1" as="geometry">
            <mxPoint x="445" y="269" as="sourcePoint" />
            <mxPoint x="730" y="269" as="targetPoint" />
            <mxPoint as="offset" />
            <Array as="points">
              <mxPoint x="575" y="269" />
              <mxPoint x="675" y="269" />
            </Array>
          </mxGeometry>
        </mxCell>
        <mxCell id="IpMiNXSg6rLeS8TZ1F-y-9" value="&amp;lt;&amp;lt;Create&amp;gt;&amp;gt;" style="html=1;verticalAlign=bottom;endArrow=block;curved=0;rounded=0;" parent="1" edge="1" target="AW9qZRYgZf-F4qoxSW6H-19" source="AW9qZRYgZf-F4qoxSW6H-17">
          <mxGeometry width="80" relative="1" as="geometry">
            <mxPoint x="800" y="281" as="sourcePoint" />
            <mxPoint x="930" y="280.5" as="targetPoint" />
            <mxPoint as="offset" />
            <Array as="points">
              <mxPoint x="815.5" y="280" />
            </Array>
          </mxGeometry>
        </mxCell>
        <mxCell id="2LXhHjvyegl3G0lYkJqZ-1" value="Reservation" style="html=1;verticalAlign=bottom;endArrow=open;dashed=1;endSize=8;edgeStyle=elbowEdgeStyle;elbow=horizontal;curved=0;rounded=0;" edge="1" parent="1" source="AW9qZRYgZf-F4qoxSW6H-4" target="aM9ryv3xv72pqoxQDRHE-5">
          <mxGeometry relative="1" as="geometry">
            <mxPoint x="460" y="190" as="targetPoint" />
            <Array as="points">
              <mxPoint x="522.5" y="190" />
            </Array>
            <mxPoint x="597.5" y="190" as="sourcePoint" />
          </mxGeometry>
        </mxCell>
        <mxCell id="2LXhHjvyegl3G0lYkJqZ-2" value="UpdateRecord(reservation)" style="html=1;verticalAlign=bottom;endArrow=block;curved=0;rounded=0;" edge="1" parent="1" source="aM9ryv3xv72pqoxQDRHE-6" target="AW9qZRYgZf-F4qoxSW6H-4">
          <mxGeometry x="0.0033" width="80" relative="1" as="geometry">
            <mxPoint x="455" y="214.5" as="sourcePoint" />
            <mxPoint x="590" y="215" as="targetPoint" />
            <Array as="points">
              <mxPoint x="570" y="214.5" />
            </Array>
            <mxPoint as="offset" />
          </mxGeometry>
        </mxCell>
      </root>
    </mxGraphModel>
  </diagram>
</mxfile>
